<?xml version="1.0" encoding="UTF-8"?>
<svg version="1.1" xmlns="http://www.w3.org/2000/svg" width="512" height="512">
<path d="M0 0 C3.95809244 3.07262297 7.39491286 6.59733983 10.85546875 10.20703125 C11.8502776 11.21748939 12.84675777 12.2263045 13.84480286 13.23356628 C16.44990571 15.8707946 19.03372043 18.5278907 21.612854 21.19049072 C24.73774657 24.40937595 27.8857649 27.60561254 31.03202534 30.80359173 C33.48231254 33.294549 35.9286314 35.78894004 38.36235046 38.2960968 C42.06705616 42.09571549 45.74314536 45.85955673 49.78173828 49.3059082 C56.15715198 54.76041713 62.00436077 60.79730236 67.94921875 66.7109375 C68.60862772 67.36627094 69.26803669 68.02160439 69.94742775 68.69679642 C73.43152081 72.16015105 76.91241465 75.62668582 80.39086914 79.09570312 C83.96653525 82.66027543 87.55373488 86.21300516 91.14360332 89.76326561 C93.9205019 92.51394688 96.68840851 95.27354654 99.45401955 98.03557205 C100.77224697 99.34895407 102.09382772 100.65897992 103.41892052 101.96543503 C120.38017827 118.70267404 120.38017827 118.70267404 121.25 131.75 C121.02789767 143.5658438 113.64945481 151.67434027 105.66259766 159.58032227 C105.06009689 160.18472137 104.45759613 160.78912048 103.83683777 161.41183472 C101.8674133 163.38492784 99.89094356 165.35078642 97.9140625 167.31640625 C96.52896173 168.70031263 95.14423294 170.08459139 93.75985718 171.46922302 C90.8664284 174.36109354 87.96969089 177.24959286 85.0703125 180.13549805 C81.37129132 183.81753865 77.67887793 187.50611856 73.98871803 191.1970377 C71.13212349 194.05335907 68.27292044 196.90705725 65.41285324 199.75990105 C64.0512351 201.11835802 62.69020328 202.47740297 61.32979202 203.83706856 C49.20085623 215.95207912 49.20085623 215.95207912 42.85794067 221.35206604 C38.90282053 224.86013112 35.28385406 228.72227056 31.6015625 232.51171875 C29.80545177 234.33994386 28.00855265 236.16739472 26.2109375 237.99414062 C23.41036487 240.8441091 20.61317639 243.69675431 17.83203125 246.56567383 C15.12331914 249.35342188 12.39559667 252.12135214 9.6640625 254.88671875 C8.84394684 255.74093918 8.02383118 256.59515961 7.17886353 257.4752655 C1.17378363 263.50817454 -4.58700307 267.05133044 -13.03125 268.53125 C-21.23370861 268.42742141 -27.47587048 266.32725534 -34.3125 261.8125 C-40.7934183 255.03014364 -43.37528425 247.89474162 -43.19921875 238.64453125 C-42.1947268 225.310393 -31.21115657 217.05493391 -22.26733398 208.15380859 C-21.03641273 206.9226683 -21.03641273 206.9226683 -19.78062439 205.66665649 C-17.10481457 202.99153567 -14.42549515 200.31996056 -11.74609375 197.6484375 C-9.87543695 195.77964849 -8.00500282 193.91063656 -6.13478088 192.04141235 C-1.73842853 187.64814831 2.6604629 183.25743602 7.06030935 178.86767161 C12.07572673 173.86349372 17.08825054 168.8564216 22.10055268 163.84912372 C32.39718827 153.5628958 42.69739017 143.28024411 53 133 C51.58609239 129.78715627 49.89676448 127.65618702 47.40762329 125.19403076 C46.66179489 124.45123367 45.91596649 123.70843658 45.14753723 122.94313049 C44.32879623 122.13786423 43.51005524 121.33259796 42.66650391 120.50292969 C41.80456924 119.64712814 40.94263458 118.7913266 40.05458069 117.90959167 C38.18127152 116.05059536 36.30628142 114.19348707 34.4283638 112.33916473 C31.45512351 109.40258169 28.49065007 106.45725491 25.52767944 103.51031494 C17.10142092 95.13230074 8.66353995 86.7660509 0.21679688 78.40869141 C-4.44990549 73.79121817 -9.10928772 69.16648087 -13.76105368 64.53395963 C-16.70054376 61.60749959 -19.64878724 58.6902569 -22.60398459 55.77966356 C-24.87999143 53.53279286 -27.14279649 51.27268787 -29.40771484 49.01464844 C-30.22240738 48.2174791 -31.03709991 47.42030975 -31.8764801 46.59898376 C-38.63534013 39.81666381 -42.48953315 33.50845232 -43.25 23.8125 C-42.65767642 14.77956533 -39.93622999 8.68902966 -33.59375 2.140625 C-23.49304843 -6.19549618 -11.19581816 -5.67255555 0 0 Z " fill="#00BFC2" transform="translate(365,124)"/>
<path d="M0 0 C6.08018888 4.4393246 9.65601822 10.40806224 11.75 17.5625 C12.71602126 26.98120726 10.78516333 34.47355432 5 42 C2.22639864 45.05232822 -0.69535163 47.94815183 -3.62402344 50.85107422 C-4.49267532 51.72001816 -5.36132721 52.5889621 -6.25630188 53.48423767 C-8.62637478 55.85316014 -11.00078198 58.21757171 -13.37726498 60.58005285 C-15.86458159 63.05482409 -18.34619456 65.53530159 -20.82843018 68.01516724 C-25.52399238 72.70452583 -30.22462715 77.38876498 -34.92712712 82.0711652 C-40.28295415 87.40459833 -45.63306903 92.74374591 -50.98272276 98.08336997 C-61.98215917 109.06192975 -72.98871098 120.03332742 -84 131 C-82.58609239 134.21284373 -80.89676448 136.34381298 -78.40762329 138.80596924 C-77.66179489 139.54876633 -76.91596649 140.29156342 -76.14753723 141.05686951 C-75.32879623 141.86213577 -74.51005524 142.66740204 -73.66650391 143.49707031 C-72.80456924 144.35287186 -71.94263458 145.2086734 -71.05458069 146.09040833 C-69.18127152 147.94940464 -67.30628142 149.80651293 -65.4283638 151.66083527 C-62.45512351 154.59741831 -59.49065007 157.54274509 -56.52767944 160.48968506 C-48.10142092 168.86769926 -39.66353995 177.2339491 -31.21679688 185.59130859 C-26.55009451 190.20878183 -21.89071228 194.83351913 -17.23894632 199.46604037 C-14.29945624 202.39250041 -11.35121276 205.3097431 -8.39601541 208.22033644 C-6.12000857 210.46720714 -3.85720351 212.72731213 -1.59228516 214.98535156 C-0.77759262 215.7825209 0.03709991 216.57969025 0.8764801 217.40101624 C7.56751051 224.11527114 12.01179908 230.90761244 12.3125 240.625 C12.22804049 247.78294323 9.71244068 253.40687554 5.8125 259.3125 C-0.20568224 265.06320748 -6.82724497 268.0826788 -15.125 268.3125 C-15.99382812 268.34988281 -16.86265625 268.38726562 -17.7578125 268.42578125 C-28.51146178 267.01355502 -34.95301314 260.85500421 -42.1953125 253.35546875 C-43.23661811 252.30039095 -44.27936164 251.24673058 -45.32345581 250.19441223 C-48.0528189 247.43667393 -50.76410776 244.66185663 -53.47131348 241.88238525 C-56.75022606 238.52178425 -60.04818686 235.17989907 -63.34545708 231.83732319 C-65.91367199 229.23370647 -68.47836653 226.62698748 -71.0317688 224.00883484 C-74.86091382 220.0930476 -78.67160667 216.19950183 -82.83862305 212.6394043 C-89.03976269 207.33713186 -94.73023798 201.47660156 -100.51171875 195.7265625 C-101.1490626 195.09329418 -101.78640644 194.46002586 -102.44306374 193.8075676 C-105.81044477 190.46091978 -109.17463002 187.1110959 -112.53637695 183.75878906 C-115.99097727 180.31528272 -119.45710645 176.88362511 -122.92590618 173.45443153 C-125.61016179 170.79639968 -128.285418 168.12944453 -130.95838356 165.46006393 C-132.23195306 164.19133802 -133.50887411 162.92596653 -134.78931236 161.66417313 C-151.37997524 145.30037135 -151.37997524 145.30037135 -152.25 132.25 C-152.02789767 120.4341562 -144.64945481 112.32565973 -136.66259766 104.41967773 C-136.06009689 103.81527863 -135.45759613 103.21087952 -134.83683777 102.58816528 C-132.8674133 100.61507216 -130.89094356 98.64921358 -128.9140625 96.68359375 C-127.52896173 95.29968737 -126.14423294 93.91540861 -124.75985718 92.53077698 C-121.8664284 89.63890646 -118.96969089 86.75040714 -116.0703125 83.86450195 C-112.37129132 80.18246135 -108.67887793 76.49388144 -104.98871803 72.8029623 C-102.13212349 69.94664093 -99.27292044 67.09294275 -96.41285324 64.24009895 C-95.0512351 62.88164198 -93.69020328 61.52259703 -92.32979202 60.16293144 C-80.21310262 48.06015322 -80.21310262 48.06015322 -73.85571289 42.64793396 C-69.90917705 39.14328059 -66.30566438 35.27842173 -62.63671875 31.48828125 C-60.84532495 29.65990162 -59.05297786 27.83245559 -57.25976562 26.00585938 C-54.46660987 23.15718931 -51.6773723 20.30559832 -48.9074707 17.43432617 C-46.20856355 14.64412507 -43.48745968 11.87724265 -40.76171875 9.11328125 C-39.94676437 8.25906082 -39.13181 7.40484039 -38.29216003 6.5247345 C-27.2106813 -4.60915754 -14.08039797 -7.2212631 0 0 Z " fill="#0079D6" transform="translate(178,124)"/>
<path d="M0 0 C6.23347611 5.15143875 11.17697685 11.42119702 11.96116924 19.65989685 C12.14229343 29.04985373 10.36692806 38.09822274 8.7512207 47.30859375 C8.42670398 49.19821922 8.10299615 51.08798377 7.7800293 52.97787476 C6.90105073 58.10750717 6.01074839 63.2351163 5.11840463 68.3624382 C4.17163207 73.81413768 3.23537573 79.26764334 2.29789734 84.72094727 C0.50748101 95.12626951 -1.29234951 105.52994055 -3.09553415 115.93305683 C-5.29146693 128.60497003 -7.4747952 141.27904891 -9.65820312 153.953125 C-11.97623743 167.40749102 -14.29723749 180.86132062 -16.6322937 194.31274414 C-17.3908689 198.68373891 -18.1493408 203.05475158 -18.90771484 207.42578125 C-19.18493523 209.02329696 -19.18493523 209.02329696 -19.46775603 210.65308571 C-21.90221044 224.68936979 -24.29701176 238.73169575 -26.65097988 252.78169441 C-27.53821674 258.06782335 -28.43344263 263.35260565 -29.32894665 268.63733959 C-30.14469787 273.4577142 -30.94680579 278.28008281 -31.7379117 283.1045599 C-32.2192163 286.01921518 -32.71371396 288.93151688 -33.21195006 291.84332085 C-33.53935098 293.78076553 -33.85059375 295.72091987 -34.16107368 297.66114807 C-35.79448195 307.08719813 -38.31770397 316.23158673 -46.23046875 322.2734375 C-52.77181496 326.3379633 -59.51810903 328.80014469 -67.2421875 327.5234375 C-77.44665614 324.76471219 -82.64468037 321.0285011 -88.0078125 311.9609375 C-93.50286059 301.10995646 -89.22562598 287.08248733 -87.2355957 275.73828125 C-86.91107898 273.84865578 -86.58737115 271.95889123 -86.2644043 270.06900024 C-85.38542573 264.93936783 -84.49512339 259.8117587 -83.60277963 254.6844368 C-82.65600707 249.23273732 -81.71975073 243.77923166 -80.78227234 238.32592773 C-78.99185601 227.92060549 -77.19202549 217.51693445 -75.38884085 207.11381817 C-73.19290807 194.44190497 -71.0095798 181.76782609 -68.82617188 169.09375 C-66.50813757 155.63938398 -64.18713751 142.18555438 -61.8520813 128.73413086 C-61.0935061 124.36313609 -60.3350342 119.99212342 -59.57666016 115.62109375 C-59.39184656 114.55608328 -59.20703297 113.49107281 -59.01661897 112.39378929 C-56.58216456 98.35750521 -54.18736324 84.31517925 -51.83339512 70.26518059 C-50.94615826 64.97905165 -50.05093237 59.69426935 -49.15542835 54.40953541 C-48.33967713 49.5891608 -47.53756921 44.76679219 -46.7464633 39.9423151 C-46.2651587 37.02765982 -45.77066104 34.11535812 -45.27242494 31.20355415 C-44.94502402 29.26610947 -44.63378125 27.32595513 -44.32330132 25.38572693 C-42.64177262 15.68198416 -40.07924871 6.90414719 -32.00390625 0.703125 C-22.20733662 -5.85688393 -10.06994245 -6.63142552 0 0 Z " fill="#009CCC" transform="translate(295.2421875,94.4765625)"/>
</svg>
